ffmpeg started on 2025-05-06 at 09:45:19
Report written to "D:\Convert\FFMetrics\reports\psnr_report-6.txt"
Log level: 32
Command line:
ffmpeg -hide_banner -nostdin -i "G:\\\xc0\xed\xe8\xec\xe5\\\xce\xed\xe3\xee\xe8\xed\xe3\xe8\\!_35_\xcb\xe5\xf2\xee_2024\\JamClub\\\xc1\xe0\xf1\xed\xff\\[JAM_CLUB]_The_Fable_12_[1080p][RUS][DUB]_HEVC.mkv" -i "G:\\\xc0\xed\xe8\xec\xe5\\\xce\xed\xe3\xee\xe8\xed\xe3\xe8\\!_35_\xcb\xe5\xf2\xee_2024\\JamClub\\\xc1\xe0\xf1\xed\xff\\[JAM_CLUB]_The_Fable_12_[1080p][RUS][DUB].mp4" -lavfi "[0:v]settb=AVTB,setpts=PTS-STARTPTS,format=pix_fmts=yuv420p10,fps=24000/1001,scale=1920:1080:flags=bicubic[main];[1:v]settb=AVTB,setpts=PTS-STARTPTS,format=pix_fmts=yuv420p,fps=24000/1001,scale=1920:1080:flags=bicubic[ref];[main][ref]psnr=eof_action=endall:stats_file='D\\:/Convert/FFMetrics/logs/psnr_logfile-6.txt'" -f null -
Input #0, matroska,webm, from 'G:\Аниме\Онгоинги\!_35_Лето_2024\JamClub\Басня\[JAM_CLUB]_The_Fable_12_[1080p][RUS][DUB]_HEVC.mkv':
  Metadata:
    COMPATIBLE_BRANDS: isomiso2avc1mp41
    MAJOR_BRAND     : isom
    MINOR_VERSION   : 512
    ENCODER         : Lavf61.7.100
  Duration: 00:23:14.33, start: -0.001000, bitrate: 824 kb/s
  Stream #0:0: Video: hevc (Main 10), yuv420p10le(tv, bt709, progressive), 1920x1080 [SAR 1:1 DAR 16:9], 23.98 fps, 23.98 tbr, 1k tbn (default)
      Metadata:
        HANDLER_NAME    : VideoHandler
        VENDOR_ID       : [0][0][0][0]
        ENCODER         : Lavc61.19.100 libx265
        BPS             : 624733
        DURATION        : 00:23:14.184708333
        NUMBER_OF_FRAMES: 33427
        NUMBER_OF_BYTES : 108874133
        _STATISTICS_WRITING_APP: mkvpropedit v66.0.0 ('Josie') 64-bit
        _STATISTICS_WRITING_DATE_UTC: 2025-05-05 14:12:10
        _STATISTICS_TAGS: BPS DURATION NUMBER_OF_FRAMES NUMBER_OF_BYTES
  Stream #0:1(eng): Audio: aac (LC), 48000 Hz, stereo, fltp (default)
      Metadata:
        HANDLER_NAME    : SoundHandler
        VENDOR_ID       : [0][0][0][0]
        ENCODER         : Lavc61.19.100 aac
        BPS             : 195474
        DURATION        : 00:23:14.285000000
        NUMBER_OF_FRAMES: 65358
        NUMBER_OF_BYTES : 34068329
        _STATISTICS_WRITING_APP: mkvpropedit v66.0.0 ('Josie') 64-bit
        _STATISTICS_WRITING_DATE_UTC: 2025-05-05 14:12:10
        _STATISTICS_TAGS: BPS DURATION NUMBER_OF_FRAMES NUMBER_OF_BYTES
Input #1, mov,mp4,m4a,3gp,3g2,mj2, from 'G:\Аниме\Онгоинги\!_35_Лето_2024\JamClub\Басня\[JAM_CLUB]_The_Fable_12_[1080p][RUS][DUB].mp4':
  Metadata:
    major_brand     : isom
    minor_version   : 512
    compatible_brands: isomiso2avc1mp41
    encoder         : Lavf60.16.100
  Duration: 00:23:14.31, start: 0.000000, bitrate: 3220 kb/s
  Stream #1:0[0x1](und): Video: h264 (High) (avc1 / 0x31637661), yuv420p(progressive), 1920x1080, 3022 kb/s, 23.98 fps, 23.98 tbr, 90k tbn (default)
      Metadata:
        handler_name    : VideoHandler
        vendor_id       : [0][0][0][0]
  Stream #1:1[0x2](eng): Audio: aac (LC) (mp4a / 0x6134706D), 48000 Hz, stereo, fltp, 191 kb/s (default)
      Metadata:
        handler_name    : SoundHandler
        vendor_id       : [0][0][0][0]
Stream mapping:
  Stream #0:0 (hevc) -> settb:default
  Stream #1:0 (h264) -> settb:default
  psnr:default -> Stream #0:0 (wrapped_avframe)
  Stream #0:1 -> #0:1 (aac (native) -> pcm_s16le (native))
Output #0, null, to 'pipe:':
  Metadata:
    COMPATIBLE_BRANDS: isomiso2avc1mp41
    MAJOR_BRAND     : isom
    MINOR_VERSION   : 512
    encoder         : Lavf61.7.100
  Stream #0:0: Video: wrapped_avframe, yuv420p10le(tv, bt709, progressive), 1920x1080 [SAR 1:1 DAR 16:9], q=2-31, 200 kb/s, 23.98 fps, 23.98 tbn
      Metadata:
        encoder         : Lavc61.19.100 wrapped_avframe
  Stream #0:1(eng): Audio: pcm_s16le, 48000 Hz, stereo, s16, 1536 kb/s (default)
      Metadata:
        HANDLER_NAME    : SoundHandler
        VENDOR_ID       : [0][0][0][0]
        _STATISTICS_TAGS: BPS DURATION NUMBER_OF_FRAMES NUMBER_OF_BYTES
        BPS             : 195474
        DURATION        : 00:23:14.285000000
        NUMBER_OF_FRAMES: 65358
        NUMBER_OF_BYTES : 34068329
        _STATISTICS_WRITING_APP: mkvpropedit v66.0.0 ('Josie') 64-bit
        _STATISTICS_WRITING_DATE_UTC: 2025-05-05 14:12:10
        encoder         : Lavc61.19.100 pcm_s16le
frame=  123 fps=0.0 q=-0.0 size=N/A time=00:00:05.13 bitrate=N/A speed=9.84x    frame=  288 fps=280 q=-0.0 size=N/A time=00:00:12.01 bitrate=N/A speed=11.7x    frame=  495 fps=319 q=-0.0 size=N/A time=00:00:20.64 bitrate=N/A speed=13.3x    frame=  755 fps=367 q=-0.0 size=N/A time=00:00:31.48 bitrate=N/A speed=15.3x    frame=  995 fps=386 q=-0.0 size=N/A time=00:00:41.49 bitrate=N/A speed=16.1x    frame= 1242 fps=400 q=-0.0 size=N/A time=00:00:51.80 bitrate=N/A speed=16.7x    frame= 1477 fps=407 q=-0.0 size=N/A time=00:01:01.60 bitrate=N/A speed=  17x    frame= 1708 fps=413 q=-0.0 size=N/A time=00:01:11.23 bitrate=N/A speed=17.2x    frame= 1916 fps=411 q=-0.0 size=N/A time=00:01:19.91 bitrate=N/A speed=17.1x    frame= 2124 fps=410 q=-0.0 size=N/A time=00:01:28.58 bitrate=N/A speed=17.1x    frame= 2377 fps=418 q=-0.0 size=N/A time=00:01:39.14 bitrate=N/A speed=17.4x    frame= 2629 fps=424 q=-0.0 size=N/A time=00:01:49.65 bitrate=N/A speed=17.7x    frame= 2873 fps=427 q=-0.0 size=N/A time=00:01:59.82 bitrate=N/A speed=17.8x    frame= 3108 fps=430 q=-0.0 size=N/A time=00:02:09.62 bitrate=N/A speed=17.9x    frame= 3354 fps=432 q=-0.0 size=N/A time=00:02:19.88 bitrate=N/A speed=  18x    frame= 3619 fps=438 q=-0.0 size=N/A time=00:02:30.94 bitrate=N/A speed=18.3x    frame= 3878 fps=442 q=-0.0 size=N/A time=00:02:41.74 bitrate=N/A speed=18.4x    frame= 4156 fps=447 q=-0.0 size=N/A time=00:02:53.33 bitrate=N/A speed=18.6x    frame= 4420 fps=451 q=-0.0 size=N/A time=00:03:04.35 bitrate=N/A speed=18.8x    frame= 4700 fps=455 q=-0.0 size=N/A time=00:03:16.02 bitrate=N/A speed=  19x    frame= 4958 fps=457 q=-0.0 size=N/A time=00:03:26.83 bitrate=N/A speed=19.1x    frame= 5239 fps=461 q=-0.0 size=N/A time=00:03:38.50 bitrate=N/A speed=19.2x    frame= 5502 fps=463 q=-0.0 size=N/A time=00:03:49.47 bitrate=N/A speed=19.3x    frame= 5775 fps=466 q=-0.0 size=N/A time=00:04:00.86 bitrate=N/A speed=19.4x    frame= 6040 fps=468 q=-0.0 size=N/A time=00:04:11.91 bitrate=N/A speed=19.5x    frame= 6318 fps=470 q=-0.0 size=N/A time=00:04:23.51 bitrate=N/A speed=19.6x    frame= 6591 fps=473 q=-0.0 size=N/A time=00:04:34.89 bitrate=N/A speed=19.7x    frame= 6842 fps=473 q=-0.0 size=N/A time=00:04:45.36 bitrate=N/A speed=19.7x    frame= 7108 fps=475 q=-0.0 size=N/A time=00:04:56.46 bitrate=N/A speed=19.8x    frame= 7378 fps=477 q=-0.0 size=N/A time=00:05:07.72 bitrate=N/A speed=19.9x    frame= 7660 fps=479 q=-0.0 size=N/A time=00:05:19.48 bitrate=N/A speed=  20x    frame= 7903 fps=479 q=-0.0 size=N/A time=00:05:29.62 bitrate=N/A speed=  20x    frame= 8156 fps=479 q=-0.0 size=N/A time=00:05:40.17 bitrate=N/A speed=  20x    frame= 8398 fps=479 q=-0.0 size=N/A time=00:05:50.26 bitrate=N/A speed=  20x    frame= 8645 fps=479 q=-0.0 size=N/A time=00:06:00.56 bitrate=N/A speed=  20x    frame= 8932 fps=481 q=-0.0 size=N/A time=00:06:12.53 bitrate=N/A speed=20.1x    frame= 9217 fps=482 q=-0.0 size=N/A time=00:06:24.42 bitrate=N/A speed=20.1x    frame= 9465 fps=483 q=-0.0 size=N/A time=00:06:34.76 bitrate=N/A speed=20.1x    frame= 9745 fps=484 q=-0.0 size=N/A time=00:06:46.44 bitrate=N/A speed=20.2x    frame=10016 fps=485 q=-0.0 size=N/A time=00:06:57.75 bitrate=N/A speed=20.2x    frame=10281 fps=486 q=-0.0 size=N/A time=00:07:08.80 bitrate=N/A speed=20.3x    frame=10540 fps=486 q=-0.0 size=N/A time=00:07:19.60 bitrate=N/A speed=20.3x    frame=10818 fps=487 q=-0.0 size=N/A time=00:07:31.20 bitrate=N/A speed=20.3x    frame=11100 fps=489 q=-0.0 size=N/A time=00:07:42.96 bitrate=N/A speed=20.4x    frame=11370 fps=490 q=-0.0 size=N/A time=00:07:54.22 bitrate=N/A speed=20.4x    frame=11641 fps=491 q=-0.0 size=N/A time=00:08:05.52 bitrate=N/A speed=20.5x    frame=11926 fps=492 q=-0.0 size=N/A time=00:08:17.41 bitrate=N/A speed=20.5x    frame=12181 fps=492 q=-0.0 size=N/A time=00:08:28.04 bitrate=N/A speed=20.5x    frame=12447 fps=492 q=-0.0 size=N/A time=00:08:39.14 bitrate=N/A speed=20.5x    frame=12737 fps=494 q=-0.0 size=N/A time=00:08:51.23 bitrate=N/A speed=20.6x    frame=13012 fps=494 q=-0.0 size=N/A time=00:09:02.70 bitrate=N/A speed=20.6x    frame=13248 fps=494 q=-0.0 size=N/A time=00:09:12.55 bitrate=N/A speed=20.6x    frame=13528 fps=495 q=-0.0 size=N/A time=00:09:24.23 bitrate=N/A speed=20.6x    frame=13793 fps=495 q=-0.0 size=N/A time=00:09:35.28 bitrate=N/A speed=20.6x    frame=14048 fps=495 q=-0.0 size=N/A time=00:09:45.91 bitrate=N/A speed=20.7x    frame=14317 fps=495 q=-0.0 size=N/A time=00:09:57.13 bitrate=N/A speed=20.7x    frame=14593 fps=496 q=-0.0 size=N/A time=00:10:08.64 bitrate=N/A speed=20.7x    frame=14840 fps=496 q=-0.0 size=N/A time=00:10:18.95 bitrate=N/A speed=20.7x    frame=15096 fps=496 q=-0.0 size=N/A time=00:10:29.62 bitrate=N/A speed=20.7x    frame=15356 fps=496 q=-0.0 size=N/A time=00:10:40.47 bitrate=N/A speed=20.7x    frame=15638 fps=497 q=-0.0 size=N/A time=00:10:52.23 bitrate=N/A speed=20.7x    frame=15889 fps=497 q=-0.0 size=N/A time=00:11:02.70 bitrate=N/A speed=20.7x    frame=16166 fps=497 q=-0.0 size=N/A time=00:11:14.25 bitrate=N/A speed=20.7x    frame=16447 fps=498 q=-0.0 size=N/A time=00:11:25.97 bitrate=N/A speed=20.8x    frame=16728 fps=498 q=-0.0 size=N/A time=00:11:37.69 bitrate=N/A speed=20.8x    frame=17004 fps=499 q=-0.0 size=N/A time=00:11:49.20 bitrate=N/A speed=20.8x    frame=17276 fps=499 q=-0.0 size=N/A time=00:12:00.55 bitrate=N/A speed=20.8x    frame=17539 fps=500 q=-0.0 size=N/A time=00:12:11.52 bitrate=N/A speed=20.8x    frame=17820 fps=500 q=-0.0 size=N/A time=00:12:23.24 bitrate=N/A speed=20.9x    frame=18096 fps=501 q=-0.0 size=N/A time=00:12:34.75 bitrate=N/A speed=20.9x    frame=18372 fps=501 q=-0.0 size=N/A time=00:12:46.26 bitrate=N/A speed=20.9x    frame=18645 fps=502 q=-0.0 size=N/A time=00:12:57.65 bitrate=N/A speed=20.9x    frame=18888 fps=501 q=-0.0 size=N/A time=00:13:07.78 bitrate=N/A speed=20.9x    frame=19156 fps=501 q=-0.0 size=N/A time=00:13:18.96 bitrate=N/A speed=20.9x    frame=19414 fps=501 q=-0.0 size=N/A time=00:13:29.72 bitrate=N/A speed=20.9x    frame=19685 fps=502 q=-0.0 size=N/A time=00:13:41.02 bitrate=N/A speed=20.9x    frame=19941 fps=502 q=-0.0 size=N/A time=00:13:51.70 bitrate=N/A speed=20.9x    frame=20213 fps=502 q=-0.0 size=N/A time=00:14:03.05 bitrate=N/A speed=20.9x    frame=20483 fps=502 q=-0.0 size=N/A time=00:14:14.31 bitrate=N/A speed=20.9x    frame=20752 fps=503 q=-0.0 size=N/A time=00:14:25.53 bitrate=N/A speed=  21x    frame=21024 fps=503 q=-0.0 size=N/A time=00:14:36.87 bitrate=N/A speed=  21x    frame=21279 fps=503 q=-0.0 size=N/A time=00:14:47.51 bitrate=N/A speed=  21x    frame=21536 fps=503 q=-0.0 size=N/A time=00:14:58.23 bitrate=N/A speed=  21x    frame=21813 fps=503 q=-0.0 size=N/A time=00:15:09.78 bitrate=N/A speed=  21x    frame=22070 fps=503 q=-0.0 size=N/A time=00:15:20.50 bitrate=N/A speed=  21x    frame=22338 fps=503 q=-0.0 size=N/A time=00:15:31.68 bitrate=N/A speed=  21x    frame=22599 fps=503 q=-0.0 size=N/A time=00:15:42.56 bitrate=N/A speed=  21x    frame=22862 fps=503 q=-0.0 size=N/A time=00:15:53.53 bitrate=N/A speed=  21x    frame=23131 fps=503 q=-0.0 size=N/A time=00:16:04.75 bitrate=N/A speed=  21x    frame=23398 fps=503 q=-0.0 size=N/A time=00:16:15.89 bitrate=N/A speed=  21x    frame=23660 fps=504 q=-0.0 size=N/A time=00:16:26.81 bitrate=N/A speed=  21x    frame=23923 fps=504 q=-0.0 size=N/A time=00:16:37.78 bitrate=N/A speed=  21x    frame=24195 fps=504 q=-0.0 size=N/A time=00:16:49.13 bitrate=N/A speed=  21x    frame=24436 fps=504 q=-0.0 size=N/A time=00:16:59.18 bitrate=N/A speed=  21x    frame=24720 fps=504 q=-0.0 size=N/A time=00:17:11.03 bitrate=N/A speed=  21x    frame=25000 fps=504 q=-0.0 size=N/A time=00:17:22.70 bitrate=N/A speed=  21x    frame=25281 fps=505 q=-0.0 size=N/A time=00:17:34.42 bitrate=N/A speed=21.1x    frame=25558 fps=505 q=-0.0 size=N/A time=00:17:45.98 bitrate=N/A speed=21.1x    frame=25837 fps=506 q=-0.0 size=N/A time=00:17:57.61 bitrate=N/A speed=21.1x    frame=26117 fps=506 q=-0.0 size=N/A time=00:18:09.29 bitrate=N/A speed=21.1x    frame=26390 fps=506 q=-0.0 size=N/A time=00:18:20.68 bitrate=N/A speed=21.1x    frame=26678 fps=507 q=-0.0 size=N/A time=00:18:32.69 bitrate=N/A speed=21.1x    frame=26959 fps=507 q=-0.0 size=N/A time=00:18:44.41 bitrate=N/A speed=21.1x    frame=27229 fps=507 q=-0.0 size=N/A time=00:18:55.67 bitrate=N/A speed=21.2x    frame=27515 fps=508 q=-0.0 size=N/A time=00:19:07.60 bitrate=N/A speed=21.2x    frame=27777 fps=508 q=-0.0 size=N/A time=00:19:18.53 bitrate=N/A speed=21.2x    frame=28027 fps=507 q=-0.0 size=N/A time=00:19:28.95 bitrate=N/A speed=21.2x    frame=28289 fps=507 q=-0.0 size=N/A time=00:19:39.88 bitrate=N/A speed=21.2x    frame=28563 fps=508 q=-0.0 size=N/A time=00:19:51.31 bitrate=N/A speed=21.2x    frame=28849 fps=508 q=-0.0 size=N/A time=00:20:03.24 bitrate=N/A speed=21.2x    frame=29139 fps=508 q=-0.0 size=N/A time=00:20:15.33 bitrate=N/A speed=21.2x    frame=29413 fps=509 q=-0.0 size=N/A time=00:20:26.76 bitrate=N/A speed=21.2x    frame=29676 fps=509 q=-0.0 size=N/A time=00:20:37.73 bitrate=N/A speed=21.2x    frame=29940 fps=509 q=-0.0 size=N/A time=00:20:48.74 bitrate=N/A speed=21.2x    frame=30198 fps=509 q=-0.0 size=N/A time=00:20:59.50 bitrate=N/A speed=21.2x    frame=30459 fps=509 q=-0.0 size=N/A time=00:21:10.39 bitrate=N/A speed=21.2x    frame=30738 fps=509 q=-0.0 size=N/A time=00:21:22.03 bitrate=N/A speed=21.2x    frame=31014 fps=509 q=-0.0 size=N/A time=00:21:33.54 bitrate=N/A speed=21.2x    frame=31268 fps=509 q=-0.0 size=N/A time=00:21:44.13 bitrate=N/A speed=21.2x    frame=31450 fps=508 q=-0.0 size=N/A time=00:21:51.72 bitrate=N/A speed=21.2x    frame=31619 fps=506 q=-0.0 size=N/A time=00:21:58.77 bitrate=N/A speed=21.1x    frame=31795 fps=505 q=-0.0 size=N/A time=00:22:06.11 bitrate=N/A speed=21.1x    frame=31966 fps=504 q=-0.0 size=N/A time=00:22:13.24 bitrate=N/A speed=  21x    frame=32134 fps=502 q=-0.0 size=N/A time=00:22:20.25 bitrate=N/A speed=20.9x    frame=32294 fps=501 q=-0.0 size=N/A time=00:22:26.92 bitrate=N/A speed=20.9x    frame=32454 fps=499 q=-0.0 size=N/A time=00:22:33.60 bitrate=N/A speed=20.8x    frame=32633 fps=498 q=-0.0 size=N/A time=00:22:41.06 bitrate=N/A speed=20.8x    frame=32832 fps=497 q=-0.0 size=N/A time=00:22:49.36 bitrate=N/A speed=20.7x    frame=33045 fps=496 q=-0.0 size=N/A time=00:22:58.25 bitrate=N/A speed=20.7x    frame=33263 fps=496 q=-0.0 size=N/A time=00:23:07.34 bitrate=N/A speed=20.7x    [Parsed_psnr_10 @ 0000026d97ff2dc0] PSNR y:49.537424 u:52.841220 v:53.027285 average:50.403653 min:37.687346 max:inf
[out#0/null @ 0000026d8b8b06c0] video:14363KiB audio:261432KiB subtitle:0KiB other streams:0KiB global headers:0KiB muxing overhead: unknown
frame=33427 fps=496 q=-0.0 Lsize=N/A time=00:23:14.18 bitrate=N/A speed=20.7x    
